<svg xmlns="http://www.w3.org/2000/svg" version="1.1" xmlns:xlink="http://www.w3.org/1999/xlink" xmlns:svgjs="http://svgjs.com/svgjs" width="512" height="512" x="0" y="0" viewBox="0 0 512 512" style="enable-background:new 0 0 512 512" xml:space="preserve" class=""><g><path d="M337 504.5H81c-19.33 0-35-15.67-35-35v-362c0-19.33 15.67-35 35-35h256c19.33 0 35 15.67 35 35v362c0 19.33-15.67 35-35 35z" style="" fill="#988393" data-original="#988393" class=""></path><path d="M372 107.5v362c0 19.33-15.67 35-35 35h-30c19.33 0 35-15.67 35-35v-362c0-19.33-15.67-35-35-35h30c19.33 0 35 15.67 35 35z" style="" fill="#806d7a" data-original="#806d7a" class=""></path><path d="M337 474.5H81a5 5 0 0 1-5-5v-362a5 5 0 0 1 5-5h256a5 5 0 0 1 5 5v362a5 5 0 0 1-5 5z" style="" fill="#ffffff" data-original="#ffffff" class=""></path><path d="M275.065 132.5h-132.13c-6.223 0-10.935-5.623-9.846-11.75l12.444-70a10 10 0 0 1 9.846-8.25h107.242a10 10 0 0 1 9.846 8.25l12.444 70c1.089 6.127-3.622 11.75-9.846 11.75z" style="" fill="#e4dfe3" data-original="#e4dfe3" class=""></path><path d="M275.07 132.5h-30c6.22 0 10.93-5.62 9.84-11.75l-12.44-70c-.85-4.77-5-8.25-9.85-8.25h30c4.85 0 9 3.48 9.85 8.25l12.44 70c1.09 6.13-3.62 11.75-9.84 11.75zM228 7.5h-38c-8.284 0-15 6.716-15 15v20h68v-20c0-8.284-6.716-15-15-15z" style="" fill="#cfc5ce" data-original="#cfc5ce"></path><path d="M243 22.5v20h-30v-20c0-8.28-6.72-15-15-15h30c8.28 0 15 6.72 15 15z" style="" fill="#baafb8" data-original="#baafb8"></path><path d="M337 474.5H81a5 5 0 0 1-5-5v-25h266v25a5 5 0 0 1-5 5z" style="" fill="#f3eae6" data-original="#f3eae6"></path><path d="M234 102.5h-50c-8.284 0-15-6.716-15-15 0-8.284 6.716-15 15-15h50c8.284 0 15 6.716 15 15 0 8.284-6.716 15-15 15z" style="" fill="#988393" data-original="#988393" class=""></path><path d="M372 196c-51.915 0-94-42.085-94-94s42.085-94 94-94 94 42.085 94 94-42.085 94-94 94z" style="" fill="#ef4956" data-original="#ff9aa2" class=""></path><path d="M466 102c0 25.96-10.52 49.46-27.53 66.47S397.96 196 372 196c-5.11 0-10.12-.41-15-1.19 19.95-3.2 37.81-12.68 51.47-26.34C425.48 151.46 436 127.96 436 102s-10.52-49.46-27.53-66.47C394.81 21.87 376.95 12.39 357 9.19c4.88-.78 9.89-1.19 15-1.19 25.96 0 49.46 10.52 66.47 27.53S466 76.04 466 102z" style="" fill="#e71b26" data-original="#ff8188" class=""></path><path d="M422.447 94.628c0-15.526-12.586-28.112-28.112-28.112-8.445 0-16.016 3.727-21.169 9.623a1.541 1.541 0 0 1-2.332 0c-5.152-5.896-12.724-9.623-21.169-9.623-15.526 0-28.112 12.586-28.112 28.112v5.198c0 20.547 37.442 50.447 50.447 50.447 13.005 0 50.447-29.9 50.447-50.447v-5.198" style="" fill="#ffffff" data-original="#ffffff" class=""></path><path d="M76 335.5h266v109H76z" style="" fill="#e6f6ff" data-original="#e6f6ff"></path><path d="M276.781 504.5H81c-19.33 0-35-15.67-35-35v-362c0-19.33 15.67-35 35-35h58.752M372 197.217V469.5c0 19.33-15.67 35-35 35h-25.219" style="stroke-width:15;stroke-linecap:round;stroke-linejoin:round;stroke-miterlimit:10;" fill="none" stroke="#000000" stroke-width="15" stroke-linecap="round" stroke-linejoin="round" stroke-miterlimit="10" data-original="#000000" class=""></path><path d="M76 300.5v-193a5 5 0 0 1 5-5h53.248M281.344 130.285a9.929 9.929 0 0 1-6.279 2.215h-132.13c-6.223 0-10.935-5.623-9.846-11.75l12.444-70a10 10 0 0 1 9.846-8.25h107.242a10 10 0 0 1 9.846 8.25l6.307 35.474M243 41.408V22.5c0-8.284-6.716-15-15-15h-38c-8.284 0-15 6.716-15 15v18.564M78.07 444.5h260.943" style="stroke-width:15;stroke-linecap:round;stroke-linejoin:round;stroke-miterlimit:10;" fill="none" stroke="#000000" stroke-width="15" stroke-linecap="round" stroke-linejoin="round" stroke-miterlimit="10" data-original="#000000" class=""></path><path d="M234 102.5h-50c-8.284 0-15-6.716-15-15v0c0-8.284 6.716-15 15-15h50c8.284 0 15 6.716 15 15v0c0 8.284-6.716 15-15 15zM372 196h0c-51.915 0-94-42.085-94-94v0c0-51.915 42.085-94 94-94h0c51.915 0 94 42.085 94 94v0c0 51.915-42.085 94-94 94z" style="stroke-width:15;stroke-linecap:round;stroke-linejoin:round;stroke-miterlimit:10;" fill="none" stroke="#000000" stroke-width="15" stroke-linecap="round" stroke-linejoin="round" stroke-miterlimit="10" data-original="#000000" class=""></path><path d="M422.447 94.628h0c0-15.526-12.586-28.112-28.112-28.112h0c-8.445 0-16.016 3.727-21.169 9.623a1.541 1.541 0 0 1-2.332 0c-5.152-5.896-12.724-9.623-21.169-9.623h0c-15.526 0-28.112 12.586-28.112 28.112v5.198c0 20.547 37.442 50.447 50.447 50.447h0c13.005 0 50.447-29.9 50.447-50.447v-5.198M116.219 391.019h19.262l8.866 23.541 19.854-50.14 10.866 26.599h17.261l8.867 23.541 19.393-48.977 10.479 25.436h13.261l8.867 23.541 23.693-48.977 10.574 25.436h14.319" style="stroke-width:15;stroke-linecap:round;stroke-linejoin:round;stroke-miterlimit:10;" fill="none" stroke="#000000" stroke-width="15" stroke-linecap="round" stroke-linejoin="round" stroke-miterlimit="10" data-original="#000000" class=""></path><path d="M342 192.516V469.5a5 5 0 0 1-5 5H81a5 5 0 0 1-5-5v-134h264.236M121.146 274.896l16.119 16.118 34.029-34.028M121.146 194.896l16.119 16.118 34.029-34.028M251 289h46M202 289h19M202 259h95M251 209h46M202 209h19M202 179h73" style="stroke-width:15;stroke-linecap:round;stroke-linejoin:round;stroke-miterlimit:10;" fill="none" stroke="#000000" stroke-width="15" stroke-linecap="round" stroke-linejoin="round" stroke-miterlimit="10" data-original="#000000" class=""></path></g></svg>